<mxfile host="app.diagrams.net" modified="2023-05-09T11:02:05.018Z" agent="Mozilla/5.0 (Windows NT 10.0; Win64; x64) AppleWebKit/537.36 (KHTML, like Gecko) Chrome/113.0.0.0 Safari/537.36" etag="JUEXM22FpiWyScINhv-G" version="21.2.9" type="device">
  <diagram id="De45ii2Sp3PFvOTu69Ke" name="第 1 页">
    <mxGraphModel dx="1301" dy="677" grid="1" gridSize="10" guides="1" tooltips="1" connect="1" arrows="1" fold="1" page="1" pageScale="1" pageWidth="827" pageHeight="1169" math="1" shadow="0">
      <root>
        <mxCell id="0" />
        <mxCell id="1" parent="0" />
        <mxCell id="NGuuJl21pHQzUnoow5Hf-8" style="edgeStyle=orthogonalEdgeStyle;rounded=0;orthogonalLoop=1;jettySize=auto;html=1;exitX=1;exitY=0.5;exitDx=0;exitDy=0;entryX=0.5;entryY=0;entryDx=0;entryDy=0;fontSize=18;" parent="1" source="NGuuJl21pHQzUnoow5Hf-2" target="_C8rl-jsYuFHUVklkYXB-4" edge="1">
          <mxGeometry relative="1" as="geometry">
            <mxPoint x="310" y="242" as="targetPoint" />
          </mxGeometry>
        </mxCell>
        <mxCell id="NGuuJl21pHQzUnoow5Hf-2" value="Encoder&lt;br&gt;Odometry" style="rounded=0;whiteSpace=wrap;html=1;fontSize=18;" parent="1" vertex="1">
          <mxGeometry x="180" y="192" width="120" height="60" as="geometry" />
        </mxCell>
        <mxCell id="Aoi8GZzUmY1Md7nDhbGH-3" style="edgeStyle=orthogonalEdgeStyle;rounded=0;orthogonalLoop=1;jettySize=auto;html=1;exitX=1;exitY=0.5;exitDx=0;exitDy=0;" parent="1" source="_C8rl-jsYuFHUVklkYXB-3" target="Aoi8GZzUmY1Md7nDhbGH-1" edge="1">
          <mxGeometry relative="1" as="geometry" />
        </mxCell>
        <mxCell id="_C8rl-jsYuFHUVklkYXB-3" value="Accelerometer" style="rounded=0;whiteSpace=wrap;html=1;fontSize=18;" parent="1" vertex="1">
          <mxGeometry x="90" y="272" width="120" height="60" as="geometry" />
        </mxCell>
        <mxCell id="_C8rl-jsYuFHUVklkYXB-6" style="edgeStyle=orthogonalEdgeStyle;rounded=0;orthogonalLoop=1;jettySize=auto;html=1;" parent="1" source="_C8rl-jsYuFHUVklkYXB-4" edge="1">
          <mxGeometry relative="1" as="geometry">
            <mxPoint x="690" y="302" as="targetPoint" />
          </mxGeometry>
        </mxCell>
        <mxCell id="_C8rl-jsYuFHUVklkYXB-4" value="Estimator&lt;br&gt;(EKF)" style="rounded=0;whiteSpace=wrap;html=1;fontSize=18;" parent="1" vertex="1">
          <mxGeometry x="480" y="272" width="130" height="60" as="geometry" />
        </mxCell>
        <mxCell id="_C8rl-jsYuFHUVklkYXB-7" value="&lt;font style=&quot;font-size: 16px;&quot;&gt;$$ (\hat{x}, \ \hat{y}) $$&lt;/font&gt;" style="text;html=1;align=center;verticalAlign=middle;resizable=0;points=[];autosize=1;strokeColor=none;fillColor=none;" parent="1" vertex="1">
          <mxGeometry x="630" y="287" width="190" height="30" as="geometry" />
        </mxCell>
        <mxCell id="_C8rl-jsYuFHUVklkYXB-10" value="" style="edgeStyle=orthogonalEdgeStyle;rounded=0;orthogonalLoop=1;jettySize=auto;html=1;" parent="1" source="_C8rl-jsYuFHUVklkYXB-9" target="_C8rl-jsYuFHUVklkYXB-4" edge="1">
          <mxGeometry relative="1" as="geometry" />
        </mxCell>
        <mxCell id="_C8rl-jsYuFHUVklkYXB-9" value="&lt;font style=&quot;font-size: 16px;&quot;&gt;$$ \iint $$&lt;/font&gt;" style="rounded=1;whiteSpace=wrap;html=1;" parent="1" vertex="1">
          <mxGeometry x="350" y="277" width="60" height="50" as="geometry" />
        </mxCell>
        <mxCell id="_C8rl-jsYuFHUVklkYXB-12" value="&lt;font style=&quot;font-size: 16px;&quot;&gt;$$ a_x $$&lt;/font&gt;" style="text;html=1;align=center;verticalAlign=middle;resizable=0;points=[];autosize=1;strokeColor=none;fillColor=none;" parent="1" vertex="1">
          <mxGeometry x="180" y="272" width="90" height="30" as="geometry" />
        </mxCell>
        <mxCell id="_C8rl-jsYuFHUVklkYXB-13" value="&lt;font style=&quot;font-size: 16px;&quot;&gt;$$ (x_o, \ y_o) $$&lt;/font&gt;" style="text;html=1;align=center;verticalAlign=middle;resizable=0;points=[];autosize=1;strokeColor=none;fillColor=none;" parent="1" vertex="1">
          <mxGeometry x="315" y="180" width="150" height="30" as="geometry" />
        </mxCell>
        <mxCell id="Aoi8GZzUmY1Md7nDhbGH-2" value="" style="edgeStyle=orthogonalEdgeStyle;rounded=0;orthogonalLoop=1;jettySize=auto;html=1;" parent="1" source="Aoi8GZzUmY1Md7nDhbGH-1" target="_C8rl-jsYuFHUVklkYXB-9" edge="1">
          <mxGeometry relative="1" as="geometry" />
        </mxCell>
        <mxCell id="Aoi8GZzUmY1Md7nDhbGH-1" value="&lt;font style=&quot;font-size: 16px;&quot;&gt;Low-pass&lt;br&gt;filter&lt;br&gt;&lt;/font&gt;" style="rounded=1;whiteSpace=wrap;html=1;" parent="1" vertex="1">
          <mxGeometry x="240" y="277" width="90" height="50" as="geometry" />
        </mxCell>
        <mxCell id="ylUBR2D6_FJoC_hkOWLj-1" value="&lt;font style=&quot;font-size: 16px;&quot;&gt;$$ (x_o, \ y_o) $$&lt;/font&gt;" style="text;html=1;align=center;verticalAlign=middle;resizable=0;points=[];autosize=1;strokeColor=none;fillColor=none;" vertex="1" parent="1">
          <mxGeometry x="370" y="270" width="150" height="30" as="geometry" />
        </mxCell>
      </root>
    </mxGraphModel>
  </diagram>
</mxfile>
